<?xml version="1.0" encoding="utf-8" standalone="no"?>
<!DOCTYPE svg PUBLIC "-//W3C//DTD SVG 1.1//EN"
  "http://www.w3.org/Graphics/SVG/1.1/DTD/svg11.dtd">
<svg xmlns:xlink="http://www.w3.org/1999/xlink" width="684pt" height="180pt" viewBox="0 0 684 180" xmlns="http://www.w3.org/2000/svg" version="1.1">
 <metadata>
  <rdf:RDF xmlns:dc="http://purl.org/dc/elements/1.1/" xmlns:cc="http://creativecommons.org/ns#" xmlns:rdf="http://www.w3.org/1999/02/22-rdf-syntax-ns#">
   <cc:Work>
    <dc:type rdf:resource="http://purl.org/dc/dcmitype/StillImage"/>
    <dc:date>2022-09-29T16:40:32.249406</dc:date>
    <dc:format>image/svg+xml</dc:format>
    <dc:creator>
     <cc:Agent>
      <dc:title>Matplotlib v3.5.1, https://matplotlib.org/</dc:title>
     </cc:Agent>
    </dc:creator>
   </cc:Work>
  </rdf:RDF>
 </metadata>
 <defs>
  <style type="text/css">*{stroke-linejoin: round; stroke-linecap: butt}</style>
 </defs>
 <g id="figure_1">
  <g id="patch_1">
   <path d="M 0 180 
L 684 180 
L 684 0 
L 0 0 
z
" style="fill: #ffffff"/>
  </g>
  <g id="axes_1">
   <g id="patch_2">
    <path d="M 55.58 136.6 
L 673.2 136.6 
L 673.2 27.84 
L 55.58 27.84 
z
" style="fill: #e5e5e5"/>
   </g>
   <g id="matplotlib.axis_1">
    <g id="xtick_1">
     <g id="line2d_1">
      <path d="M 83.653636 136.6 
L 83.653636 27.84 
" clip-path="url(#p075dd39669)" style="fill: none; stroke: #ffffff; stroke-width: 0.8; stroke-linecap: square"/>
     </g>
     <g id="line2d_2">
      <defs>
       <path id="m252d85b046" d="M 0 0 
L 0 3.5 
" style="stroke: #555555; stroke-width: 0.8"/>
      </defs>
      <g>
       <use xlink:href="#m252d85b046" x="83.653636" y="136.6" style="fill: #555555; stroke: #555555; stroke-width: 0.8"/>
      </g>
     </g>
     <g id="text_1">
      <!-- 2001 -->
      <g style="fill: #555555" transform="translate(70.928636 151.198438)scale(0.1 -0.1)">
       <defs>
        <path id="DejaVuSans-32" d="M 1228 531 
L 3431 531 
L 3431 0 
L 469 0 
L 469 531 
Q 828 903 1448 1529 
Q 2069 2156 2228 2338 
Q 2531 2678 2651 2914 
Q 2772 3150 2772 3378 
Q 2772 3750 2511 3984 
Q 2250 4219 1831 4219 
Q 1534 4219 1204 4116 
Q 875 4013 500 3803 
L 500 4441 
Q 881 4594 1212 4672 
Q 1544 4750 1819 4750 
Q 2544 4750 2975 4387 
Q 3406 4025 3406 3419 
Q 3406 3131 3298 2873 
Q 3191 2616 2906 2266 
Q 2828 2175 2409 1742 
Q 1991 1309 1228 531 
z
" transform="scale(0.015625)"/>
        <path id="DejaVuSans-30" d="M 2034 4250 
Q 1547 4250 1301 3770 
Q 1056 3291 1056 2328 
Q 1056 1369 1301 889 
Q 1547 409 2034 409 
Q 2525 409 2770 889 
Q 3016 1369 3016 2328 
Q 3016 3291 2770 3770 
Q 2525 4250 2034 4250 
z
M 2034 4750 
Q 2819 4750 3233 4129 
Q 3647 3509 3647 2328 
Q 3647 1150 3233 529 
Q 2819 -91 2034 -91 
Q 1250 -91 836 529 
Q 422 1150 422 2328 
Q 422 3509 836 4129 
Q 1250 4750 2034 4750 
z
" transform="scale(0.015625)"/>
        <path id="DejaVuSans-31" d="M 794 531 
L 1825 531 
L 1825 4091 
L 703 3866 
L 703 4441 
L 1819 4666 
L 2450 4666 
L 2450 531 
L 3481 531 
L 3481 0 
L 794 0 
L 794 531 
z
" transform="scale(0.015625)"/>
       </defs>
       <use xlink:href="#DejaVuSans-32"/>
       <use xlink:href="#DejaVuSans-30" x="63.623047"/>
       <use xlink:href="#DejaVuSans-30" x="127.246094"/>
       <use xlink:href="#DejaVuSans-31" x="190.869141"/>
      </g>
     </g>
    </g>
    <g id="xtick_2">
     <g id="line2d_3">
      <path d="M 139.800909 136.6 
L 139.800909 27.84 
" clip-path="url(#p075dd39669)" style="fill: none; stroke: #ffffff; stroke-width: 0.8; stroke-linecap: square"/>
     </g>
     <g id="line2d_4">
      <g>
       <use xlink:href="#m252d85b046" x="139.800909" y="136.6" style="fill: #555555; stroke: #555555; stroke-width: 0.8"/>
      </g>
     </g>
     <g id="text_2">
      <!-- 2003 -->
      <g style="fill: #555555" transform="translate(127.075909 151.198438)scale(0.1 -0.1)">
       <defs>
        <path id="DejaVuSans-33" d="M 2597 2516 
Q 3050 2419 3304 2112 
Q 3559 1806 3559 1356 
Q 3559 666 3084 287 
Q 2609 -91 1734 -91 
Q 1441 -91 1130 -33 
Q 819 25 488 141 
L 488 750 
Q 750 597 1062 519 
Q 1375 441 1716 441 
Q 2309 441 2620 675 
Q 2931 909 2931 1356 
Q 2931 1769 2642 2001 
Q 2353 2234 1838 2234 
L 1294 2234 
L 1294 2753 
L 1863 2753 
Q 2328 2753 2575 2939 
Q 2822 3125 2822 3475 
Q 2822 3834 2567 4026 
Q 2313 4219 1838 4219 
Q 1578 4219 1281 4162 
Q 984 4106 628 3988 
L 628 4550 
Q 988 4650 1302 4700 
Q 1616 4750 1894 4750 
Q 2613 4750 3031 4423 
Q 3450 4097 3450 3541 
Q 3450 3153 3228 2886 
Q 3006 2619 2597 2516 
z
" transform="scale(0.015625)"/>
       </defs>
       <use xlink:href="#DejaVuSans-32"/>
       <use xlink:href="#DejaVuSans-30" x="63.623047"/>
       <use xlink:href="#DejaVuSans-30" x="127.246094"/>
       <use xlink:href="#DejaVuSans-33" x="190.869141"/>
      </g>
     </g>
    </g>
    <g id="xtick_3">
     <g id="line2d_5">
      <path d="M 195.948182 136.6 
L 195.948182 27.84 
" clip-path="url(#p075dd39669)" style="fill: none; stroke: #ffffff; stroke-width: 0.8; stroke-linecap: square"/>
     </g>
     <g id="line2d_6">
      <g>
       <use xlink:href="#m252d85b046" x="195.948182" y="136.6" style="fill: #555555; stroke: #555555; stroke-width: 0.8"/>
      </g>
     </g>
     <g id="text_3">
      <!-- 2005 -->
      <g style="fill: #555555" transform="translate(183.223182 151.198438)scale(0.1 -0.1)">
       <defs>
        <path id="DejaVuSans-35" d="M 691 4666 
L 3169 4666 
L 3169 4134 
L 1269 4134 
L 1269 2991 
Q 1406 3038 1543 3061 
Q 1681 3084 1819 3084 
Q 2600 3084 3056 2656 
Q 3513 2228 3513 1497 
Q 3513 744 3044 326 
Q 2575 -91 1722 -91 
Q 1428 -91 1123 -41 
Q 819 9 494 109 
L 494 744 
Q 775 591 1075 516 
Q 1375 441 1709 441 
Q 2250 441 2565 725 
Q 2881 1009 2881 1497 
Q 2881 1984 2565 2268 
Q 2250 2553 1709 2553 
Q 1456 2553 1204 2497 
Q 953 2441 691 2322 
L 691 4666 
z
" transform="scale(0.015625)"/>
       </defs>
       <use xlink:href="#DejaVuSans-32"/>
       <use xlink:href="#DejaVuSans-30" x="63.623047"/>
       <use xlink:href="#DejaVuSans-30" x="127.246094"/>
       <use xlink:href="#DejaVuSans-35" x="190.869141"/>
      </g>
     </g>
    </g>
    <g id="xtick_4">
     <g id="line2d_7">
      <path d="M 252.095455 136.6 
L 252.095455 27.84 
" clip-path="url(#p075dd39669)" style="fill: none; stroke: #ffffff; stroke-width: 0.8; stroke-linecap: square"/>
     </g>
     <g id="line2d_8">
      <g>
       <use xlink:href="#m252d85b046" x="252.095455" y="136.6" style="fill: #555555; stroke: #555555; stroke-width: 0.8"/>
      </g>
     </g>
     <g id="text_4">
      <!-- 2007 -->
      <g style="fill: #555555" transform="translate(239.370455 151.198438)scale(0.1 -0.1)">
       <defs>
        <path id="DejaVuSans-37" d="M 525 4666 
L 3525 4666 
L 3525 4397 
L 1831 0 
L 1172 0 
L 2766 4134 
L 525 4134 
L 525 4666 
z
" transform="scale(0.015625)"/>
       </defs>
       <use xlink:href="#DejaVuSans-32"/>
       <use xlink:href="#DejaVuSans-30" x="63.623047"/>
       <use xlink:href="#DejaVuSans-30" x="127.246094"/>
       <use xlink:href="#DejaVuSans-37" x="190.869141"/>
      </g>
     </g>
    </g>
    <g id="xtick_5">
     <g id="line2d_9">
      <path d="M 308.242727 136.6 
L 308.242727 27.84 
" clip-path="url(#p075dd39669)" style="fill: none; stroke: #ffffff; stroke-width: 0.8; stroke-linecap: square"/>
     </g>
     <g id="line2d_10">
      <g>
       <use xlink:href="#m252d85b046" x="308.242727" y="136.6" style="fill: #555555; stroke: #555555; stroke-width: 0.8"/>
      </g>
     </g>
     <g id="text_5">
      <!-- 2009 -->
      <g style="fill: #555555" transform="translate(295.517727 151.198438)scale(0.1 -0.1)">
       <defs>
        <path id="DejaVuSans-39" d="M 703 97 
L 703 672 
Q 941 559 1184 500 
Q 1428 441 1663 441 
Q 2288 441 2617 861 
Q 2947 1281 2994 2138 
Q 2813 1869 2534 1725 
Q 2256 1581 1919 1581 
Q 1219 1581 811 2004 
Q 403 2428 403 3163 
Q 403 3881 828 4315 
Q 1253 4750 1959 4750 
Q 2769 4750 3195 4129 
Q 3622 3509 3622 2328 
Q 3622 1225 3098 567 
Q 2575 -91 1691 -91 
Q 1453 -91 1209 -44 
Q 966 3 703 97 
z
M 1959 2075 
Q 2384 2075 2632 2365 
Q 2881 2656 2881 3163 
Q 2881 3666 2632 3958 
Q 2384 4250 1959 4250 
Q 1534 4250 1286 3958 
Q 1038 3666 1038 3163 
Q 1038 2656 1286 2365 
Q 1534 2075 1959 2075 
z
" transform="scale(0.015625)"/>
       </defs>
       <use xlink:href="#DejaVuSans-32"/>
       <use xlink:href="#DejaVuSans-30" x="63.623047"/>
       <use xlink:href="#DejaVuSans-30" x="127.246094"/>
       <use xlink:href="#DejaVuSans-39" x="190.869141"/>
      </g>
     </g>
    </g>
    <g id="xtick_6">
     <g id="line2d_11">
      <path d="M 364.39 136.6 
L 364.39 27.84 
" clip-path="url(#p075dd39669)" style="fill: none; stroke: #ffffff; stroke-width: 0.8; stroke-linecap: square"/>
     </g>
     <g id="line2d_12">
      <g>
       <use xlink:href="#m252d85b046" x="364.39" y="136.6" style="fill: #555555; stroke: #555555; stroke-width: 0.8"/>
      </g>
     </g>
     <g id="text_6">
      <!-- 2011 -->
      <g style="fill: #555555" transform="translate(351.665 151.198438)scale(0.1 -0.1)">
       <use xlink:href="#DejaVuSans-32"/>
       <use xlink:href="#DejaVuSans-30" x="63.623047"/>
       <use xlink:href="#DejaVuSans-31" x="127.246094"/>
       <use xlink:href="#DejaVuSans-31" x="190.869141"/>
      </g>
     </g>
    </g>
    <g id="xtick_7">
     <g id="line2d_13">
      <path d="M 420.537273 136.6 
L 420.537273 27.84 
" clip-path="url(#p075dd39669)" style="fill: none; stroke: #ffffff; stroke-width: 0.8; stroke-linecap: square"/>
     </g>
     <g id="line2d_14">
      <g>
       <use xlink:href="#m252d85b046" x="420.537273" y="136.6" style="fill: #555555; stroke: #555555; stroke-width: 0.8"/>
      </g>
     </g>
     <g id="text_7">
      <!-- 2013 -->
      <g style="fill: #555555" transform="translate(407.812273 151.198438)scale(0.1 -0.1)">
       <use xlink:href="#DejaVuSans-32"/>
       <use xlink:href="#DejaVuSans-30" x="63.623047"/>
       <use xlink:href="#DejaVuSans-31" x="127.246094"/>
       <use xlink:href="#DejaVuSans-33" x="190.869141"/>
      </g>
     </g>
    </g>
    <g id="xtick_8">
     <g id="line2d_15">
      <path d="M 476.684545 136.6 
L 476.684545 27.84 
" clip-path="url(#p075dd39669)" style="fill: none; stroke: #ffffff; stroke-width: 0.8; stroke-linecap: square"/>
     </g>
     <g id="line2d_16">
      <g>
       <use xlink:href="#m252d85b046" x="476.684545" y="136.6" style="fill: #555555; stroke: #555555; stroke-width: 0.8"/>
      </g>
     </g>
     <g id="text_8">
      <!-- 2015 -->
      <g style="fill: #555555" transform="translate(463.959545 151.198438)scale(0.1 -0.1)">
       <use xlink:href="#DejaVuSans-32"/>
       <use xlink:href="#DejaVuSans-30" x="63.623047"/>
       <use xlink:href="#DejaVuSans-31" x="127.246094"/>
       <use xlink:href="#DejaVuSans-35" x="190.869141"/>
      </g>
     </g>
    </g>
    <g id="xtick_9">
     <g id="line2d_17">
      <path d="M 532.831818 136.6 
L 532.831818 27.84 
" clip-path="url(#p075dd39669)" style="fill: none; stroke: #ffffff; stroke-width: 0.8; stroke-linecap: square"/>
     </g>
     <g id="line2d_18">
      <g>
       <use xlink:href="#m252d85b046" x="532.831818" y="136.6" style="fill: #555555; stroke: #555555; stroke-width: 0.8"/>
      </g>
     </g>
     <g id="text_9">
      <!-- 2017 -->
      <g style="fill: #555555" transform="translate(520.106818 151.198438)scale(0.1 -0.1)">
       <use xlink:href="#DejaVuSans-32"/>
       <use xlink:href="#DejaVuSans-30" x="63.623047"/>
       <use xlink:href="#DejaVuSans-31" x="127.246094"/>
       <use xlink:href="#DejaVuSans-37" x="190.869141"/>
      </g>
     </g>
    </g>
    <g id="xtick_10">
     <g id="line2d_19">
      <path d="M 588.979091 136.6 
L 588.979091 27.84 
" clip-path="url(#p075dd39669)" style="fill: none; stroke: #ffffff; stroke-width: 0.8; stroke-linecap: square"/>
     </g>
     <g id="line2d_20">
      <g>
       <use xlink:href="#m252d85b046" x="588.979091" y="136.6" style="fill: #555555; stroke: #555555; stroke-width: 0.8"/>
      </g>
     </g>
     <g id="text_10">
      <!-- 2019 -->
      <g style="fill: #555555" transform="translate(576.254091 151.198438)scale(0.1 -0.1)">
       <use xlink:href="#DejaVuSans-32"/>
       <use xlink:href="#DejaVuSans-30" x="63.623047"/>
       <use xlink:href="#DejaVuSans-31" x="127.246094"/>
       <use xlink:href="#DejaVuSans-39" x="190.869141"/>
      </g>
     </g>
    </g>
    <g id="xtick_11">
     <g id="line2d_21">
      <path d="M 645.126364 136.6 
L 645.126364 27.84 
" clip-path="url(#p075dd39669)" style="fill: none; stroke: #ffffff; stroke-width: 0.8; stroke-linecap: square"/>
     </g>
     <g id="line2d_22">
      <g>
       <use xlink:href="#m252d85b046" x="645.126364" y="136.6" style="fill: #555555; stroke: #555555; stroke-width: 0.8"/>
      </g>
     </g>
     <g id="text_11">
      <!-- 2021 -->
      <g style="fill: #555555" transform="translate(632.401364 151.198438)scale(0.1 -0.1)">
       <use xlink:href="#DejaVuSans-32"/>
       <use xlink:href="#DejaVuSans-30" x="63.623047"/>
       <use xlink:href="#DejaVuSans-32" x="127.246094"/>
       <use xlink:href="#DejaVuSans-31" x="190.869141"/>
      </g>
     </g>
    </g>
    <g id="text_12">
     <!-- Year -->
     <g style="fill: #555555" transform="translate(351.685 166.39625)scale(0.12 -0.12)">
      <defs>
       <path id="DejaVuSans-59" d="M -13 4666 
L 666 4666 
L 1959 2747 
L 3244 4666 
L 3922 4666 
L 2272 2222 
L 2272 0 
L 1638 0 
L 1638 2222 
L -13 4666 
z
" transform="scale(0.015625)"/>
       <path id="DejaVuSans-65" d="M 3597 1894 
L 3597 1613 
L 953 1613 
Q 991 1019 1311 708 
Q 1631 397 2203 397 
Q 2534 397 2845 478 
Q 3156 559 3463 722 
L 3463 178 
Q 3153 47 2828 -22 
Q 2503 -91 2169 -91 
Q 1331 -91 842 396 
Q 353 884 353 1716 
Q 353 2575 817 3079 
Q 1281 3584 2069 3584 
Q 2775 3584 3186 3129 
Q 3597 2675 3597 1894 
z
M 3022 2063 
Q 3016 2534 2758 2815 
Q 2500 3097 2075 3097 
Q 1594 3097 1305 2825 
Q 1016 2553 972 2059 
L 3022 2063 
z
" transform="scale(0.015625)"/>
       <path id="DejaVuSans-61" d="M 2194 1759 
Q 1497 1759 1228 1600 
Q 959 1441 959 1056 
Q 959 750 1161 570 
Q 1363 391 1709 391 
Q 2188 391 2477 730 
Q 2766 1069 2766 1631 
L 2766 1759 
L 2194 1759 
z
M 3341 1997 
L 3341 0 
L 2766 0 
L 2766 531 
Q 2569 213 2275 61 
Q 1981 -91 1556 -91 
Q 1019 -91 701 211 
Q 384 513 384 1019 
Q 384 1609 779 1909 
Q 1175 2209 1959 2209 
L 2766 2209 
L 2766 2266 
Q 2766 2663 2505 2880 
Q 2244 3097 1772 3097 
Q 1472 3097 1187 3025 
Q 903 2953 641 2809 
L 641 3341 
Q 956 3463 1253 3523 
Q 1550 3584 1831 3584 
Q 2591 3584 2966 3190 
Q 3341 2797 3341 1997 
z
" transform="scale(0.015625)"/>
       <path id="DejaVuSans-72" d="M 2631 2963 
Q 2534 3019 2420 3045 
Q 2306 3072 2169 3072 
Q 1681 3072 1420 2755 
Q 1159 2438 1159 1844 
L 1159 0 
L 581 0 
L 581 3500 
L 1159 3500 
L 1159 2956 
Q 1341 3275 1631 3429 
Q 1922 3584 2338 3584 
Q 2397 3584 2469 3576 
Q 2541 3569 2628 3553 
L 2631 2963 
z
" transform="scale(0.015625)"/>
      </defs>
      <use xlink:href="#DejaVuSans-59"/>
      <use xlink:href="#DejaVuSans-65" x="47.833984"/>
      <use xlink:href="#DejaVuSans-61" x="109.357422"/>
      <use xlink:href="#DejaVuSans-72" x="170.636719"/>
     </g>
    </g>
   </g>
   <g id="matplotlib.axis_2">
    <g id="ytick_1">
     <g id="line2d_23">
      <path d="M 55.58 136.6 
L 673.2 136.6 
" clip-path="url(#p075dd39669)" style="fill: none; stroke: #ffffff; stroke-width: 0.8; stroke-linecap: square"/>
     </g>
     <g id="line2d_24">
      <defs>
       <path id="m21f0a6a5be" d="M 0 0 
L -3.5 0 
" style="stroke: #555555; stroke-width: 0.8"/>
      </defs>
      <g>
       <use xlink:href="#m21f0a6a5be" x="55.58" y="136.6" style="fill: #555555; stroke: #555555; stroke-width: 0.8"/>
      </g>
     </g>
     <g id="text_13">
      <!-- 0 -->
      <g style="fill: #555555" transform="translate(42.2175 140.399219)scale(0.1 -0.1)">
       <use xlink:href="#DejaVuSans-30"/>
      </g>
     </g>
    </g>
    <g id="ytick_2">
     <g id="line2d_25">
      <path d="M 55.58 96.761172 
L 673.2 96.761172 
" clip-path="url(#p075dd39669)" style="fill: none; stroke: #ffffff; stroke-width: 0.8; stroke-linecap: square"/>
     </g>
     <g id="line2d_26">
      <g>
       <use xlink:href="#m21f0a6a5be" x="55.58" y="96.761172" style="fill: #555555; stroke: #555555; stroke-width: 0.8"/>
      </g>
     </g>
     <g id="text_14">
      <!-- 5 -->
      <g style="fill: #555555" transform="translate(42.2175 100.560391)scale(0.1 -0.1)">
       <use xlink:href="#DejaVuSans-35"/>
      </g>
     </g>
    </g>
    <g id="ytick_3">
     <g id="line2d_27">
      <path d="M 55.58 56.922344 
L 673.2 56.922344 
" clip-path="url(#p075dd39669)" style="fill: none; stroke: #ffffff; stroke-width: 0.8; stroke-linecap: square"/>
     </g>
     <g id="line2d_28">
      <g>
       <use xlink:href="#m21f0a6a5be" x="55.58" y="56.922344" style="fill: #555555; stroke: #555555; stroke-width: 0.8"/>
      </g>
     </g>
     <g id="text_15">
      <!-- 10 -->
      <g style="fill: #555555" transform="translate(35.855 60.721563)scale(0.1 -0.1)">
       <use xlink:href="#DejaVuSans-31"/>
       <use xlink:href="#DejaVuSans-30" x="63.623047"/>
      </g>
     </g>
    </g>
    <g id="text_16">
     <!-- Number of papers -->
     <g style="fill: #555555" transform="translate(29.359375 136.499375)rotate(-90)scale(0.12 -0.12)">
      <defs>
       <path id="DejaVuSans-4e" d="M 628 4666 
L 1478 4666 
L 3547 763 
L 3547 4666 
L 4159 4666 
L 4159 0 
L 3309 0 
L 1241 3903 
L 1241 0 
L 628 0 
L 628 4666 
z
" transform="scale(0.015625)"/>
       <path id="DejaVuSans-75" d="M 544 1381 
L 544 3500 
L 1119 3500 
L 1119 1403 
Q 1119 906 1312 657 
Q 1506 409 1894 409 
Q 2359 409 2629 706 
Q 2900 1003 2900 1516 
L 2900 3500 
L 3475 3500 
L 3475 0 
L 2900 0 
L 2900 538 
Q 2691 219 2414 64 
Q 2138 -91 1772 -91 
Q 1169 -91 856 284 
Q 544 659 544 1381 
z
M 1991 3584 
L 1991 3584 
z
" transform="scale(0.015625)"/>
       <path id="DejaVuSans-6d" d="M 3328 2828 
Q 3544 3216 3844 3400 
Q 4144 3584 4550 3584 
Q 5097 3584 5394 3201 
Q 5691 2819 5691 2113 
L 5691 0 
L 5113 0 
L 5113 2094 
Q 5113 2597 4934 2840 
Q 4756 3084 4391 3084 
Q 3944 3084 3684 2787 
Q 3425 2491 3425 1978 
L 3425 0 
L 2847 0 
L 2847 2094 
Q 2847 2600 2669 2842 
Q 2491 3084 2119 3084 
Q 1678 3084 1418 2786 
Q 1159 2488 1159 1978 
L 1159 0 
L 581 0 
L 581 3500 
L 1159 3500 
L 1159 2956 
Q 1356 3278 1631 3431 
Q 1906 3584 2284 3584 
Q 2666 3584 2933 3390 
Q 3200 3197 3328 2828 
z
" transform="scale(0.015625)"/>
       <path id="DejaVuSans-62" d="M 3116 1747 
Q 3116 2381 2855 2742 
Q 2594 3103 2138 3103 
Q 1681 3103 1420 2742 
Q 1159 2381 1159 1747 
Q 1159 1113 1420 752 
Q 1681 391 2138 391 
Q 2594 391 2855 752 
Q 3116 1113 3116 1747 
z
M 1159 2969 
Q 1341 3281 1617 3432 
Q 1894 3584 2278 3584 
Q 2916 3584 3314 3078 
Q 3713 2572 3713 1747 
Q 3713 922 3314 415 
Q 2916 -91 2278 -91 
Q 1894 -91 1617 61 
Q 1341 213 1159 525 
L 1159 0 
L 581 0 
L 581 4863 
L 1159 4863 
L 1159 2969 
z
" transform="scale(0.015625)"/>
       <path id="DejaVuSans-20" transform="scale(0.015625)"/>
       <path id="DejaVuSans-6f" d="M 1959 3097 
Q 1497 3097 1228 2736 
Q 959 2375 959 1747 
Q 959 1119 1226 758 
Q 1494 397 1959 397 
Q 2419 397 2687 759 
Q 2956 1122 2956 1747 
Q 2956 2369 2687 2733 
Q 2419 3097 1959 3097 
z
M 1959 3584 
Q 2709 3584 3137 3096 
Q 3566 2609 3566 1747 
Q 3566 888 3137 398 
Q 2709 -91 1959 -91 
Q 1206 -91 779 398 
Q 353 888 353 1747 
Q 353 2609 779 3096 
Q 1206 3584 1959 3584 
z
" transform="scale(0.015625)"/>
       <path id="DejaVuSans-66" d="M 2375 4863 
L 2375 4384 
L 1825 4384 
Q 1516 4384 1395 4259 
Q 1275 4134 1275 3809 
L 1275 3500 
L 2222 3500 
L 2222 3053 
L 1275 3053 
L 1275 0 
L 697 0 
L 697 3053 
L 147 3053 
L 147 3500 
L 697 3500 
L 697 3744 
Q 697 4328 969 4595 
Q 1241 4863 1831 4863 
L 2375 4863 
z
" transform="scale(0.015625)"/>
       <path id="DejaVuSans-70" d="M 1159 525 
L 1159 -1331 
L 581 -1331 
L 581 3500 
L 1159 3500 
L 1159 2969 
Q 1341 3281 1617 3432 
Q 1894 3584 2278 3584 
Q 2916 3584 3314 3078 
Q 3713 2572 3713 1747 
Q 3713 922 3314 415 
Q 2916 -91 2278 -91 
Q 1894 -91 1617 61 
Q 1341 213 1159 525 
z
M 3116 1747 
Q 3116 2381 2855 2742 
Q 2594 3103 2138 3103 
Q 1681 3103 1420 2742 
Q 1159 2381 1159 1747 
Q 1159 1113 1420 752 
Q 1681 391 2138 391 
Q 2594 391 2855 752 
Q 3116 1113 3116 1747 
z
" transform="scale(0.015625)"/>
       <path id="DejaVuSans-73" d="M 2834 3397 
L 2834 2853 
Q 2591 2978 2328 3040 
Q 2066 3103 1784 3103 
Q 1356 3103 1142 2972 
Q 928 2841 928 2578 
Q 928 2378 1081 2264 
Q 1234 2150 1697 2047 
L 1894 2003 
Q 2506 1872 2764 1633 
Q 3022 1394 3022 966 
Q 3022 478 2636 193 
Q 2250 -91 1575 -91 
Q 1294 -91 989 -36 
Q 684 19 347 128 
L 347 722 
Q 666 556 975 473 
Q 1284 391 1588 391 
Q 1994 391 2212 530 
Q 2431 669 2431 922 
Q 2431 1156 2273 1281 
Q 2116 1406 1581 1522 
L 1381 1569 
Q 847 1681 609 1914 
Q 372 2147 372 2553 
Q 372 3047 722 3315 
Q 1072 3584 1716 3584 
Q 2034 3584 2315 3537 
Q 2597 3491 2834 3397 
z
" transform="scale(0.015625)"/>
      </defs>
      <use xlink:href="#DejaVuSans-4e"/>
      <use xlink:href="#DejaVuSans-75" x="74.804688"/>
      <use xlink:href="#DejaVuSans-6d" x="138.183594"/>
      <use xlink:href="#DejaVuSans-62" x="235.595703"/>
      <use xlink:href="#DejaVuSans-65" x="299.072266"/>
      <use xlink:href="#DejaVuSans-72" x="360.595703"/>
      <use xlink:href="#DejaVuSans-20" x="401.708984"/>
      <use xlink:href="#DejaVuSans-6f" x="433.496094"/>
      <use xlink:href="#DejaVuSans-66" x="494.677734"/>
      <use xlink:href="#DejaVuSans-20" x="529.882812"/>
      <use xlink:href="#DejaVuSans-70" x="561.669922"/>
      <use xlink:href="#DejaVuSans-61" x="625.146484"/>
      <use xlink:href="#DejaVuSans-70" x="686.425781"/>
      <use xlink:href="#DejaVuSans-65" x="749.902344"/>
      <use xlink:href="#DejaVuSans-72" x="811.425781"/>
      <use xlink:href="#DejaVuSans-73" x="852.539062"/>
     </g>
    </g>
   </g>
   <g id="patch_3">
    <path d="M 66.809455 136.6 
L 73.547127 136.6 
L 73.547127 128.632234 
L 66.809455 128.632234 
z
" clip-path="url(#p075dd39669)" style="fill: #e24a33"/>
   </g>
   <g id="patch_4">
    <path d="M 263.324909 136.6 
L 270.062582 136.6 
L 270.062582 128.632234 
L 263.324909 128.632234 
z
" clip-path="url(#p075dd39669)" style="fill: #e24a33"/>
   </g>
   <g id="patch_5">
    <path d="M 319.472182 136.6 
L 326.209855 136.6 
L 326.209855 128.632234 
L 319.472182 128.632234 
z
" clip-path="url(#p075dd39669)" style="fill: #e24a33"/>
   </g>
   <g id="patch_6">
    <path d="M 375.619455 136.6 
L 382.357127 136.6 
L 382.357127 120.664469 
L 375.619455 120.664469 
z
" clip-path="url(#p075dd39669)" style="fill: #e24a33"/>
   </g>
   <g id="patch_7">
    <path d="M 403.693091 136.6 
L 410.430764 136.6 
L 410.430764 128.632234 
L 403.693091 128.632234 
z
" clip-path="url(#p075dd39669)" style="fill: #e24a33"/>
   </g>
   <g id="patch_8">
    <path d="M 431.766727 136.6 
L 438.5044 136.6 
L 438.5044 128.632234 
L 431.766727 128.632234 
z
" clip-path="url(#p075dd39669)" style="fill: #e24a33"/>
   </g>
   <g id="patch_9">
    <path d="M 487.914 136.6 
L 494.651673 136.6 
L 494.651673 104.728938 
L 487.914 104.728938 
z
" clip-path="url(#p075dd39669)" style="fill: #e24a33"/>
   </g>
   <g id="patch_10">
    <path d="M 515.987636 136.6 
L 522.725309 136.6 
L 522.725309 128.632234 
L 515.987636 128.632234 
z
" clip-path="url(#p075dd39669)" style="fill: #e24a33"/>
   </g>
   <g id="patch_11">
    <path d="M 544.061273 136.6 
L 550.798945 136.6 
L 550.798945 64.89011 
L 544.061273 64.89011 
z
" clip-path="url(#p075dd39669)" style="fill: #e24a33"/>
   </g>
   <g id="patch_12">
    <path d="M 572.134909 136.6 
L 578.872582 136.6 
L 578.872582 72.857875 
L 572.134909 72.857875 
z
" clip-path="url(#p075dd39669)" style="fill: #e24a33"/>
   </g>
   <g id="patch_13">
    <path d="M 600.208545 136.6 
L 606.946218 136.6 
L 606.946218 33.019048 
L 600.208545 33.019048 
z
" clip-path="url(#p075dd39669)" style="fill: #e24a33"/>
   </g>
   <g id="patch_14">
    <path d="M 628.282182 136.6 
L 635.019855 136.6 
L 635.019855 33.019048 
L 628.282182 33.019048 
z
" clip-path="url(#p075dd39669)" style="fill: #e24a33"/>
   </g>
   <g id="patch_15">
    <path d="M 73.547127 136.6 
L 80.2848 136.6 
L 80.2848 136.6 
L 73.547127 136.6 
z
" clip-path="url(#p075dd39669)" style="fill: #348abd"/>
   </g>
   <g id="patch_16">
    <path d="M 270.062582 136.6 
L 276.800255 136.6 
L 276.800255 136.6 
L 270.062582 136.6 
z
" clip-path="url(#p075dd39669)" style="fill: #348abd"/>
   </g>
   <g id="patch_17">
    <path d="M 326.209855 136.6 
L 332.947527 136.6 
L 332.947527 136.6 
L 326.209855 136.6 
z
" clip-path="url(#p075dd39669)" style="fill: #348abd"/>
   </g>
   <g id="patch_18">
    <path d="M 382.357127 136.6 
L 389.0948 136.6 
L 389.0948 136.6 
L 382.357127 136.6 
z
" clip-path="url(#p075dd39669)" style="fill: #348abd"/>
   </g>
   <g id="patch_19">
    <path d="M 410.430764 136.6 
L 417.168436 136.6 
L 417.168436 136.6 
L 410.430764 136.6 
z
" clip-path="url(#p075dd39669)" style="fill: #348abd"/>
   </g>
   <g id="patch_20">
    <path d="M 438.5044 136.6 
L 445.242073 136.6 
L 445.242073 136.6 
L 438.5044 136.6 
z
" clip-path="url(#p075dd39669)" style="fill: #348abd"/>
   </g>
   <g id="patch_21">
    <path d="M 494.651673 136.6 
L 501.389345 136.6 
L 501.389345 136.6 
L 494.651673 136.6 
z
" clip-path="url(#p075dd39669)" style="fill: #348abd"/>
   </g>
   <g id="patch_22">
    <path d="M 522.725309 136.6 
L 529.462982 136.6 
L 529.462982 136.6 
L 522.725309 136.6 
z
" clip-path="url(#p075dd39669)" style="fill: #348abd"/>
   </g>
   <g id="patch_23">
    <path d="M 550.798945 136.6 
L 557.536618 136.6 
L 557.536618 112.696703 
L 550.798945 112.696703 
z
" clip-path="url(#p075dd39669)" style="fill: #348abd"/>
   </g>
   <g id="patch_24">
    <path d="M 578.872582 136.6 
L 585.610255 136.6 
L 585.610255 128.632234 
L 578.872582 128.632234 
z
" clip-path="url(#p075dd39669)" style="fill: #348abd"/>
   </g>
   <g id="patch_25">
    <path d="M 606.946218 136.6 
L 613.683891 136.6 
L 613.683891 128.632234 
L 606.946218 128.632234 
z
" clip-path="url(#p075dd39669)" style="fill: #348abd"/>
   </g>
   <g id="patch_26">
    <path d="M 635.019855 136.6 
L 641.757527 136.6 
L 641.757527 112.696703 
L 635.019855 112.696703 
z
" clip-path="url(#p075dd39669)" style="fill: #348abd"/>
   </g>
   <g id="patch_27">
    <path d="M 80.2848 136.6 
L 87.022473 136.6 
L 87.022473 136.6 
L 80.2848 136.6 
z
" clip-path="url(#p075dd39669)" style="fill: #988ed5"/>
   </g>
   <g id="patch_28">
    <path d="M 276.800255 136.6 
L 283.537927 136.6 
L 283.537927 136.6 
L 276.800255 136.6 
z
" clip-path="url(#p075dd39669)" style="fill: #988ed5"/>
   </g>
   <g id="patch_29">
    <path d="M 332.947527 136.6 
L 339.6852 136.6 
L 339.6852 136.6 
L 332.947527 136.6 
z
" clip-path="url(#p075dd39669)" style="fill: #988ed5"/>
   </g>
   <g id="patch_30">
    <path d="M 389.0948 136.6 
L 395.832473 136.6 
L 395.832473 136.6 
L 389.0948 136.6 
z
" clip-path="url(#p075dd39669)" style="fill: #988ed5"/>
   </g>
   <g id="patch_31">
    <path d="M 417.168436 136.6 
L 423.906109 136.6 
L 423.906109 136.6 
L 417.168436 136.6 
z
" clip-path="url(#p075dd39669)" style="fill: #988ed5"/>
   </g>
   <g id="patch_32">
    <path d="M 445.242073 136.6 
L 451.979745 136.6 
L 451.979745 136.6 
L 445.242073 136.6 
z
" clip-path="url(#p075dd39669)" style="fill: #988ed5"/>
   </g>
   <g id="patch_33">
    <path d="M 501.389345 136.6 
L 508.127018 136.6 
L 508.127018 136.6 
L 501.389345 136.6 
z
" clip-path="url(#p075dd39669)" style="fill: #988ed5"/>
   </g>
   <g id="patch_34">
    <path d="M 529.462982 136.6 
L 536.200655 136.6 
L 536.200655 120.664469 
L 529.462982 120.664469 
z
" clip-path="url(#p075dd39669)" style="fill: #988ed5"/>
   </g>
   <g id="patch_35">
    <path d="M 557.536618 136.6 
L 564.274291 136.6 
L 564.274291 112.696703 
L 557.536618 112.696703 
z
" clip-path="url(#p075dd39669)" style="fill: #988ed5"/>
   </g>
   <g id="patch_36">
    <path d="M 585.610255 136.6 
L 592.347927 136.6 
L 592.347927 104.728938 
L 585.610255 104.728938 
z
" clip-path="url(#p075dd39669)" style="fill: #988ed5"/>
   </g>
   <g id="patch_37">
    <path d="M 613.683891 136.6 
L 620.421564 136.6 
L 620.421564 96.761172 
L 613.683891 96.761172 
z
" clip-path="url(#p075dd39669)" style="fill: #988ed5"/>
   </g>
   <g id="patch_38">
    <path d="M 641.757527 136.6 
L 648.4952 136.6 
L 648.4952 40.986813 
L 641.757527 40.986813 
z
" clip-path="url(#p075dd39669)" style="fill: #988ed5"/>
   </g>
   <g id="patch_39">
    <path d="M 87.022473 136.6 
L 93.760145 136.6 
L 93.760145 136.6 
L 87.022473 136.6 
z
" clip-path="url(#p075dd39669)" style="fill: #777777"/>
   </g>
   <g id="patch_40">
    <path d="M 283.537927 136.6 
L 290.2756 136.6 
L 290.2756 136.6 
L 283.537927 136.6 
z
" clip-path="url(#p075dd39669)" style="fill: #777777"/>
   </g>
   <g id="patch_41">
    <path d="M 339.6852 136.6 
L 346.422873 136.6 
L 346.422873 136.6 
L 339.6852 136.6 
z
" clip-path="url(#p075dd39669)" style="fill: #777777"/>
   </g>
   <g id="patch_42">
    <path d="M 395.832473 136.6 
L 402.570145 136.6 
L 402.570145 128.632234 
L 395.832473 128.632234 
z
" clip-path="url(#p075dd39669)" style="fill: #777777"/>
   </g>
   <g id="patch_43">
    <path d="M 423.906109 136.6 
L 430.643782 136.6 
L 430.643782 136.6 
L 423.906109 136.6 
z
" clip-path="url(#p075dd39669)" style="fill: #777777"/>
   </g>
   <g id="patch_44">
    <path d="M 451.979745 136.6 
L 458.717418 136.6 
L 458.717418 136.6 
L 451.979745 136.6 
z
" clip-path="url(#p075dd39669)" style="fill: #777777"/>
   </g>
   <g id="patch_45">
    <path d="M 508.127018 136.6 
L 514.864691 136.6 
L 514.864691 128.632234 
L 508.127018 128.632234 
z
" clip-path="url(#p075dd39669)" style="fill: #777777"/>
   </g>
   <g id="patch_46">
    <path d="M 536.200655 136.6 
L 542.938327 136.6 
L 542.938327 136.6 
L 536.200655 136.6 
z
" clip-path="url(#p075dd39669)" style="fill: #777777"/>
   </g>
   <g id="patch_47">
    <path d="M 564.274291 136.6 
L 571.011964 136.6 
L 571.011964 136.6 
L 564.274291 136.6 
z
" clip-path="url(#p075dd39669)" style="fill: #777777"/>
   </g>
   <g id="patch_48">
    <path d="M 592.347927 136.6 
L 599.0856 136.6 
L 599.0856 136.6 
L 592.347927 136.6 
z
" clip-path="url(#p075dd39669)" style="fill: #777777"/>
   </g>
   <g id="patch_49">
    <path d="M 620.421564 136.6 
L 627.159236 136.6 
L 627.159236 136.6 
L 620.421564 136.6 
z
" clip-path="url(#p075dd39669)" style="fill: #777777"/>
   </g>
   <g id="patch_50">
    <path d="M 648.4952 136.6 
L 655.232873 136.6 
L 655.232873 120.664469 
L 648.4952 120.664469 
z
" clip-path="url(#p075dd39669)" style="fill: #777777"/>
   </g>
   <g id="patch_51">
    <path d="M 55.58 136.6 
L 55.58 27.84 
" style="fill: none; stroke: #ffffff; stroke-linejoin: miter; stroke-linecap: square"/>
   </g>
   <g id="patch_52">
    <path d="M 673.2 136.6 
L 673.2 27.84 
" style="fill: none; stroke: #ffffff; stroke-linejoin: miter; stroke-linecap: square"/>
   </g>
   <g id="patch_53">
    <path d="M 55.58 136.6 
L 673.2 136.6 
" style="fill: none; stroke: #ffffff; stroke-linejoin: miter; stroke-linecap: square"/>
   </g>
   <g id="patch_54">
    <path d="M 55.58 27.84 
L 673.2 27.84 
" style="fill: none; stroke: #ffffff; stroke-linejoin: miter; stroke-linecap: square"/>
   </g>
   <g id="text_17">
    <!-- Algorithm types over time -->
    <g transform="translate(270.104875 21.84)scale(0.144 -0.144)">
     <defs>
      <path id="DejaVuSans-41" d="M 2188 4044 
L 1331 1722 
L 3047 1722 
L 2188 4044 
z
M 1831 4666 
L 2547 4666 
L 4325 0 
L 3669 0 
L 3244 1197 
L 1141 1197 
L 716 0 
L 50 0 
L 1831 4666 
z
" transform="scale(0.015625)"/>
      <path id="DejaVuSans-6c" d="M 603 4863 
L 1178 4863 
L 1178 0 
L 603 0 
L 603 4863 
z
" transform="scale(0.015625)"/>
      <path id="DejaVuSans-67" d="M 2906 1791 
Q 2906 2416 2648 2759 
Q 2391 3103 1925 3103 
Q 1463 3103 1205 2759 
Q 947 2416 947 1791 
Q 947 1169 1205 825 
Q 1463 481 1925 481 
Q 2391 481 2648 825 
Q 2906 1169 2906 1791 
z
M 3481 434 
Q 3481 -459 3084 -895 
Q 2688 -1331 1869 -1331 
Q 1566 -1331 1297 -1286 
Q 1028 -1241 775 -1147 
L 775 -588 
Q 1028 -725 1275 -790 
Q 1522 -856 1778 -856 
Q 2344 -856 2625 -561 
Q 2906 -266 2906 331 
L 2906 616 
Q 2728 306 2450 153 
Q 2172 0 1784 0 
Q 1141 0 747 490 
Q 353 981 353 1791 
Q 353 2603 747 3093 
Q 1141 3584 1784 3584 
Q 2172 3584 2450 3431 
Q 2728 3278 2906 2969 
L 2906 3500 
L 3481 3500 
L 3481 434 
z
" transform="scale(0.015625)"/>
      <path id="DejaVuSans-69" d="M 603 3500 
L 1178 3500 
L 1178 0 
L 603 0 
L 603 3500 
z
M 603 4863 
L 1178 4863 
L 1178 4134 
L 603 4134 
L 603 4863 
z
" transform="scale(0.015625)"/>
      <path id="DejaVuSans-74" d="M 1172 4494 
L 1172 3500 
L 2356 3500 
L 2356 3053 
L 1172 3053 
L 1172 1153 
Q 1172 725 1289 603 
Q 1406 481 1766 481 
L 2356 481 
L 2356 0 
L 1766 0 
Q 1100 0 847 248 
Q 594 497 594 1153 
L 594 3053 
L 172 3053 
L 172 3500 
L 594 3500 
L 594 4494 
L 1172 4494 
z
" transform="scale(0.015625)"/>
      <path id="DejaVuSans-68" d="M 3513 2113 
L 3513 0 
L 2938 0 
L 2938 2094 
Q 2938 2591 2744 2837 
Q 2550 3084 2163 3084 
Q 1697 3084 1428 2787 
Q 1159 2491 1159 1978 
L 1159 0 
L 581 0 
L 581 4863 
L 1159 4863 
L 1159 2956 
Q 1366 3272 1645 3428 
Q 1925 3584 2291 3584 
Q 2894 3584 3203 3211 
Q 3513 2838 3513 2113 
z
" transform="scale(0.015625)"/>
      <path id="DejaVuSans-79" d="M 2059 -325 
Q 1816 -950 1584 -1140 
Q 1353 -1331 966 -1331 
L 506 -1331 
L 506 -850 
L 844 -850 
Q 1081 -850 1212 -737 
Q 1344 -625 1503 -206 
L 1606 56 
L 191 3500 
L 800 3500 
L 1894 763 
L 2988 3500 
L 3597 3500 
L 2059 -325 
z
" transform="scale(0.015625)"/>
      <path id="DejaVuSans-76" d="M 191 3500 
L 800 3500 
L 1894 563 
L 2988 3500 
L 3597 3500 
L 2284 0 
L 1503 0 
L 191 3500 
z
" transform="scale(0.015625)"/>
     </defs>
     <use xlink:href="#DejaVuSans-41"/>
     <use xlink:href="#DejaVuSans-6c" x="68.408203"/>
     <use xlink:href="#DejaVuSans-67" x="96.191406"/>
     <use xlink:href="#DejaVuSans-6f" x="159.667969"/>
     <use xlink:href="#DejaVuSans-72" x="220.849609"/>
     <use xlink:href="#DejaVuSans-69" x="261.962891"/>
     <use xlink:href="#DejaVuSans-74" x="289.746094"/>
     <use xlink:href="#DejaVuSans-68" x="328.955078"/>
     <use xlink:href="#DejaVuSans-6d" x="392.333984"/>
     <use xlink:href="#DejaVuSans-20" x="489.746094"/>
     <use xlink:href="#DejaVuSans-74" x="521.533203"/>
     <use xlink:href="#DejaVuSans-79" x="560.742188"/>
     <use xlink:href="#DejaVuSans-70" x="619.921875"/>
     <use xlink:href="#DejaVuSans-65" x="683.398438"/>
     <use xlink:href="#DejaVuSans-73" x="744.921875"/>
     <use xlink:href="#DejaVuSans-20" x="797.021484"/>
     <use xlink:href="#DejaVuSans-6f" x="828.808594"/>
     <use xlink:href="#DejaVuSans-76" x="889.990234"/>
     <use xlink:href="#DejaVuSans-65" x="949.169922"/>
     <use xlink:href="#DejaVuSans-72" x="1010.693359"/>
     <use xlink:href="#DejaVuSans-20" x="1051.806641"/>
     <use xlink:href="#DejaVuSans-74" x="1083.59375"/>
     <use xlink:href="#DejaVuSans-69" x="1122.802734"/>
     <use xlink:href="#DejaVuSans-6d" x="1150.585938"/>
     <use xlink:href="#DejaVuSans-65" x="1247.998047"/>
    </g>
   </g>
   <g id="legend_1">
    <g id="patch_55">
     <path d="M 62.58 94.5525 
L 251.947188 94.5525 
Q 253.947188 94.5525 253.947188 92.5525 
L 253.947188 34.84 
Q 253.947188 32.84 251.947188 32.84 
L 62.58 32.84 
Q 60.58 32.84 60.58 34.84 
L 60.58 92.5525 
Q 60.58 94.5525 62.58 94.5525 
z
" style="fill: #e5e5e5; opacity: 0.8; stroke: #cccccc; stroke-width: 0.5; stroke-linejoin: miter"/>
    </g>
    <g id="patch_56">
     <path d="M 64.58 44.438438 
L 84.58 44.438438 
L 84.58 37.438438 
L 64.58 37.438438 
z
" style="fill: #e24a33"/>
    </g>
    <g id="text_18">
     <!-- Supervised learning -->
     <g transform="translate(92.58 44.438438)scale(0.1 -0.1)">
      <defs>
       <path id="DejaVuSans-53" d="M 3425 4513 
L 3425 3897 
Q 3066 4069 2747 4153 
Q 2428 4238 2131 4238 
Q 1616 4238 1336 4038 
Q 1056 3838 1056 3469 
Q 1056 3159 1242 3001 
Q 1428 2844 1947 2747 
L 2328 2669 
Q 3034 2534 3370 2195 
Q 3706 1856 3706 1288 
Q 3706 609 3251 259 
Q 2797 -91 1919 -91 
Q 1588 -91 1214 -16 
Q 841 59 441 206 
L 441 856 
Q 825 641 1194 531 
Q 1563 422 1919 422 
Q 2459 422 2753 634 
Q 3047 847 3047 1241 
Q 3047 1584 2836 1778 
Q 2625 1972 2144 2069 
L 1759 2144 
Q 1053 2284 737 2584 
Q 422 2884 422 3419 
Q 422 4038 858 4394 
Q 1294 4750 2059 4750 
Q 2388 4750 2728 4690 
Q 3069 4631 3425 4513 
z
" transform="scale(0.015625)"/>
       <path id="DejaVuSans-64" d="M 2906 2969 
L 2906 4863 
L 3481 4863 
L 3481 0 
L 2906 0 
L 2906 525 
Q 2725 213 2448 61 
Q 2172 -91 1784 -91 
Q 1150 -91 751 415 
Q 353 922 353 1747 
Q 353 2572 751 3078 
Q 1150 3584 1784 3584 
Q 2172 3584 2448 3432 
Q 2725 3281 2906 2969 
z
M 947 1747 
Q 947 1113 1208 752 
Q 1469 391 1925 391 
Q 2381 391 2643 752 
Q 2906 1113 2906 1747 
Q 2906 2381 2643 2742 
Q 2381 3103 1925 3103 
Q 1469 3103 1208 2742 
Q 947 2381 947 1747 
z
" transform="scale(0.015625)"/>
       <path id="DejaVuSans-6e" d="M 3513 2113 
L 3513 0 
L 2938 0 
L 2938 2094 
Q 2938 2591 2744 2837 
Q 2550 3084 2163 3084 
Q 1697 3084 1428 2787 
Q 1159 2491 1159 1978 
L 1159 0 
L 581 0 
L 581 3500 
L 1159 3500 
L 1159 2956 
Q 1366 3272 1645 3428 
Q 1925 3584 2291 3584 
Q 2894 3584 3203 3211 
Q 3513 2838 3513 2113 
z
" transform="scale(0.015625)"/>
      </defs>
      <use xlink:href="#DejaVuSans-53"/>
      <use xlink:href="#DejaVuSans-75" x="63.476562"/>
      <use xlink:href="#DejaVuSans-70" x="126.855469"/>
      <use xlink:href="#DejaVuSans-65" x="190.332031"/>
      <use xlink:href="#DejaVuSans-72" x="251.855469"/>
      <use xlink:href="#DejaVuSans-76" x="292.96875"/>
      <use xlink:href="#DejaVuSans-69" x="352.148438"/>
      <use xlink:href="#DejaVuSans-73" x="379.931641"/>
      <use xlink:href="#DejaVuSans-65" x="432.03125"/>
      <use xlink:href="#DejaVuSans-64" x="493.554688"/>
      <use xlink:href="#DejaVuSans-20" x="557.03125"/>
      <use xlink:href="#DejaVuSans-6c" x="588.818359"/>
      <use xlink:href="#DejaVuSans-65" x="616.601562"/>
      <use xlink:href="#DejaVuSans-61" x="678.125"/>
      <use xlink:href="#DejaVuSans-72" x="739.404297"/>
      <use xlink:href="#DejaVuSans-6e" x="778.767578"/>
      <use xlink:href="#DejaVuSans-69" x="842.146484"/>
      <use xlink:href="#DejaVuSans-6e" x="869.929688"/>
      <use xlink:href="#DejaVuSans-67" x="933.308594"/>
     </g>
    </g>
    <g id="patch_57">
     <path d="M 64.58 59.116563 
L 84.58 59.116563 
L 84.58 52.116563 
L 64.58 52.116563 
z
" style="fill: #348abd"/>
    </g>
    <g id="text_19">
     <!-- Unsupervised learning -->
     <g transform="translate(92.58 59.116563)scale(0.1 -0.1)">
      <defs>
       <path id="DejaVuSans-55" d="M 556 4666 
L 1191 4666 
L 1191 1831 
Q 1191 1081 1462 751 
Q 1734 422 2344 422 
Q 2950 422 3222 751 
Q 3494 1081 3494 1831 
L 3494 4666 
L 4128 4666 
L 4128 1753 
Q 4128 841 3676 375 
Q 3225 -91 2344 -91 
Q 1459 -91 1007 375 
Q 556 841 556 1753 
L 556 4666 
z
" transform="scale(0.015625)"/>
      </defs>
      <use xlink:href="#DejaVuSans-55"/>
      <use xlink:href="#DejaVuSans-6e" x="73.193359"/>
      <use xlink:href="#DejaVuSans-73" x="136.572266"/>
      <use xlink:href="#DejaVuSans-75" x="188.671875"/>
      <use xlink:href="#DejaVuSans-70" x="252.050781"/>
      <use xlink:href="#DejaVuSans-65" x="315.527344"/>
      <use xlink:href="#DejaVuSans-72" x="377.050781"/>
      <use xlink:href="#DejaVuSans-76" x="418.164062"/>
      <use xlink:href="#DejaVuSans-69" x="477.34375"/>
      <use xlink:href="#DejaVuSans-73" x="505.126953"/>
      <use xlink:href="#DejaVuSans-65" x="557.226562"/>
      <use xlink:href="#DejaVuSans-64" x="618.75"/>
      <use xlink:href="#DejaVuSans-20" x="682.226562"/>
      <use xlink:href="#DejaVuSans-6c" x="714.013672"/>
      <use xlink:href="#DejaVuSans-65" x="741.796875"/>
      <use xlink:href="#DejaVuSans-61" x="803.320312"/>
      <use xlink:href="#DejaVuSans-72" x="864.599609"/>
      <use xlink:href="#DejaVuSans-6e" x="903.962891"/>
      <use xlink:href="#DejaVuSans-69" x="967.341797"/>
      <use xlink:href="#DejaVuSans-6e" x="995.125"/>
      <use xlink:href="#DejaVuSans-67" x="1058.503906"/>
     </g>
    </g>
    <g id="patch_58">
     <path d="M 64.58 73.794688 
L 84.58 73.794688 
L 84.58 66.794688 
L 64.58 66.794688 
z
" style="fill: #988ed5"/>
    </g>
    <g id="text_20">
     <!-- Reinforcement learning -->
     <g transform="translate(92.58 73.794688)scale(0.1 -0.1)">
      <defs>
       <path id="DejaVuSans-52" d="M 2841 2188 
Q 3044 2119 3236 1894 
Q 3428 1669 3622 1275 
L 4263 0 
L 3584 0 
L 2988 1197 
Q 2756 1666 2539 1819 
Q 2322 1972 1947 1972 
L 1259 1972 
L 1259 0 
L 628 0 
L 628 4666 
L 2053 4666 
Q 2853 4666 3247 4331 
Q 3641 3997 3641 3322 
Q 3641 2881 3436 2590 
Q 3231 2300 2841 2188 
z
M 1259 4147 
L 1259 2491 
L 2053 2491 
Q 2509 2491 2742 2702 
Q 2975 2913 2975 3322 
Q 2975 3731 2742 3939 
Q 2509 4147 2053 4147 
L 1259 4147 
z
" transform="scale(0.015625)"/>
       <path id="DejaVuSans-63" d="M 3122 3366 
L 3122 2828 
Q 2878 2963 2633 3030 
Q 2388 3097 2138 3097 
Q 1578 3097 1268 2742 
Q 959 2388 959 1747 
Q 959 1106 1268 751 
Q 1578 397 2138 397 
Q 2388 397 2633 464 
Q 2878 531 3122 666 
L 3122 134 
Q 2881 22 2623 -34 
Q 2366 -91 2075 -91 
Q 1284 -91 818 406 
Q 353 903 353 1747 
Q 353 2603 823 3093 
Q 1294 3584 2113 3584 
Q 2378 3584 2631 3529 
Q 2884 3475 3122 3366 
z
" transform="scale(0.015625)"/>
      </defs>
      <use xlink:href="#DejaVuSans-52"/>
      <use xlink:href="#DejaVuSans-65" x="64.982422"/>
      <use xlink:href="#DejaVuSans-69" x="126.505859"/>
      <use xlink:href="#DejaVuSans-6e" x="154.289062"/>
      <use xlink:href="#DejaVuSans-66" x="217.667969"/>
      <use xlink:href="#DejaVuSans-6f" x="252.873047"/>
      <use xlink:href="#DejaVuSans-72" x="314.054688"/>
      <use xlink:href="#DejaVuSans-63" x="352.917969"/>
      <use xlink:href="#DejaVuSans-65" x="407.898438"/>
      <use xlink:href="#DejaVuSans-6d" x="469.421875"/>
      <use xlink:href="#DejaVuSans-65" x="566.833984"/>
      <use xlink:href="#DejaVuSans-6e" x="628.357422"/>
      <use xlink:href="#DejaVuSans-74" x="691.736328"/>
      <use xlink:href="#DejaVuSans-20" x="730.945312"/>
      <use xlink:href="#DejaVuSans-6c" x="762.732422"/>
      <use xlink:href="#DejaVuSans-65" x="790.515625"/>
      <use xlink:href="#DejaVuSans-61" x="852.039062"/>
      <use xlink:href="#DejaVuSans-72" x="913.318359"/>
      <use xlink:href="#DejaVuSans-6e" x="952.681641"/>
      <use xlink:href="#DejaVuSans-69" x="1016.060547"/>
      <use xlink:href="#DejaVuSans-6e" x="1043.84375"/>
      <use xlink:href="#DejaVuSans-67" x="1107.222656"/>
     </g>
    </g>
    <g id="patch_59">
     <path d="M 64.58 88.472813 
L 84.58 88.472813 
L 84.58 81.472813 
L 64.58 81.472813 
z
" style="fill: #777777"/>
    </g>
    <g id="text_21">
     <!-- Biological / physiological model -->
     <g transform="translate(92.58 88.472813)scale(0.1 -0.1)">
      <defs>
       <path id="DejaVuSans-42" d="M 1259 2228 
L 1259 519 
L 2272 519 
Q 2781 519 3026 730 
Q 3272 941 3272 1375 
Q 3272 1813 3026 2020 
Q 2781 2228 2272 2228 
L 1259 2228 
z
M 1259 4147 
L 1259 2741 
L 2194 2741 
Q 2656 2741 2882 2914 
Q 3109 3088 3109 3444 
Q 3109 3797 2882 3972 
Q 2656 4147 2194 4147 
L 1259 4147 
z
M 628 4666 
L 2241 4666 
Q 2963 4666 3353 4366 
Q 3744 4066 3744 3513 
Q 3744 3084 3544 2831 
Q 3344 2578 2956 2516 
Q 3422 2416 3680 2098 
Q 3938 1781 3938 1306 
Q 3938 681 3513 340 
Q 3088 0 2303 0 
L 628 0 
L 628 4666 
z
" transform="scale(0.015625)"/>
       <path id="DejaVuSans-2f" d="M 1625 4666 
L 2156 4666 
L 531 -594 
L 0 -594 
L 1625 4666 
z
" transform="scale(0.015625)"/>
      </defs>
      <use xlink:href="#DejaVuSans-42"/>
      <use xlink:href="#DejaVuSans-69" x="68.603516"/>
      <use xlink:href="#DejaVuSans-6f" x="96.386719"/>
      <use xlink:href="#DejaVuSans-6c" x="157.568359"/>
      <use xlink:href="#DejaVuSans-6f" x="185.351562"/>
      <use xlink:href="#DejaVuSans-67" x="246.533203"/>
      <use xlink:href="#DejaVuSans-69" x="310.009766"/>
      <use xlink:href="#DejaVuSans-63" x="337.792969"/>
      <use xlink:href="#DejaVuSans-61" x="392.773438"/>
      <use xlink:href="#DejaVuSans-6c" x="454.052734"/>
      <use xlink:href="#DejaVuSans-20" x="481.835938"/>
      <use xlink:href="#DejaVuSans-2f" x="513.623047"/>
      <use xlink:href="#DejaVuSans-20" x="547.314453"/>
      <use xlink:href="#DejaVuSans-70" x="579.101562"/>
      <use xlink:href="#DejaVuSans-68" x="642.578125"/>
      <use xlink:href="#DejaVuSans-79" x="705.957031"/>
      <use xlink:href="#DejaVuSans-73" x="765.136719"/>
      <use xlink:href="#DejaVuSans-69" x="817.236328"/>
      <use xlink:href="#DejaVuSans-6f" x="845.019531"/>
      <use xlink:href="#DejaVuSans-6c" x="906.201172"/>
      <use xlink:href="#DejaVuSans-6f" x="933.984375"/>
      <use xlink:href="#DejaVuSans-67" x="995.166016"/>
      <use xlink:href="#DejaVuSans-69" x="1058.642578"/>
      <use xlink:href="#DejaVuSans-63" x="1086.425781"/>
      <use xlink:href="#DejaVuSans-61" x="1141.40625"/>
      <use xlink:href="#DejaVuSans-6c" x="1202.685547"/>
      <use xlink:href="#DejaVuSans-20" x="1230.46875"/>
      <use xlink:href="#DejaVuSans-6d" x="1262.255859"/>
      <use xlink:href="#DejaVuSans-6f" x="1359.667969"/>
      <use xlink:href="#DejaVuSans-64" x="1420.849609"/>
      <use xlink:href="#DejaVuSans-65" x="1484.326172"/>
      <use xlink:href="#DejaVuSans-6c" x="1545.849609"/>
     </g>
    </g>
   </g>
  </g>
 </g>
 <defs>
  <clipPath id="p075dd39669">
   <rect x="55.58" y="27.84" width="617.62" height="108.76"/>
  </clipPath>
 </defs>
</svg>
